<?xml version="1.0" encoding="utf-8"?><svg xmlns="http://www.w3.org/2000/svg"><symbol viewBox="0 0 24 24" id="play"><path d="M20 12L5 21V3z"/></symbol><symbol viewBox="0 0 24 24" id="pause-circle"><path fill-rule="evenodd" clip-rule="evenodd" d="M12 22C17.5228 22 22 17.5228 22 12C22 6.47715 17.5228 2 12 2C6.47715 2 2 6.47715 2 12C2 17.5228 6.47715 22 12 22Z"/><path fill-rule="evenodd" clip-rule="evenodd" d="M8 8V16H10V8H8Z"/><path fill-rule="evenodd" clip-rule="evenodd" d="M14 8V16H16V8H14Z"/></symbol><symbol viewBox="0 0 24 24" id="stop"><rect width="14" height="14" x="5" y="5"/></symbol><symbol viewBox="0 0 24 24" id="chevrons-left"><polyline points="11 17 6 12 11 7 11 7"/><polyline points="17 17 12 12 17 7 17 7"/></symbol><symbol viewBox="0 0 24 24" id="chevrons-right"><polyline points="13 7 18 12 13 17 13 17"/><polyline points="7 7 12 12 7 17 7 17"/></symbol><symbol viewBox="0 0 24 24" id="music"><polyline stroke-linecap="round" points="8 18 8 6 20 3 20 16"/><path d="M5.9470822 20.5104863C4.47941733 21.0446727 3.00094415 20.6845313 2.64481994 19.706088 2.28869572 18.7276448 3.18977746 17.5014162 4.65744233 16.9672299 6.1251072 16.4330436 7.60358037 16.793185 7.95970459 17.7716282 8.31582881 18.7500715 7.41474707 19.9763 5.9470822 20.5104863zM17.9470822 18.5104863C16.4794173 19.0446727 15.0009442 18.6845313 14.6448199 17.706088 14.2886957 16.7276448 15.1897775 15.5014162 16.6574423 14.9672299 18.1251072 14.4330436 19.6035804 14.793185 19.9597046 15.7716282 20.3158288 16.7500715 19.4147471 17.9763 17.9470822 18.5104863z"/></symbol></svg>